<?xml version="1.0" encoding="utf-8"?>
<!-- Generator: Adobe Illustrator 20.0.0, SVG Export Plug-In . SVG Version: 6.00 Build 0)  -->
<svg version="1.1" id="Layer_1" xmlns="http://www.w3.org/2000/svg" xmlns:xlink="http://www.w3.org/1999/xlink" x="0px" y="0px"
	 viewBox="0 0 850.4 850.4" style="enable-background:new 0 0 850.4 850.4;" xml:space="preserve">
<style type="text/css">
	.st0{fill:#FFFFFF;}
</style>
<g>
	<g>
		<path class="st0" d="M221.7,405.2v-14.5h91.5v14.5h-23.5v63.9h-17.2v-63.9H221.7z"/>
		<path class="st0" d="M287.9,405.2v-14.5h64.3v14.5h-23.5v63.9h-17.2v-63.9H287.9z"/>
		<path class="st0" d="M406.3,390.7v14.5h-41.4V422h18.4v13.4h-18.4v19.2h42.3v14.5h-59.5v-78.4H406.3z"/>
		<path class="st0" d="M433.5,390.7c3.5,0,6.7,0.6,9.5,1.7c2.8,1.1,5.2,2.7,7.2,4.7c2,2,3.6,4.3,4.6,6.9c1.1,2.6,1.6,5.4,1.6,8.4
			c0,4.6-1,8.6-2.9,12c-1.9,3.4-5.1,5.9-9.5,7.7v0.2c2.1,0.6,3.9,1.5,5.3,2.7c1.4,1.2,2.5,2.6,3.4,4.3c0.9,1.6,1.5,3.5,1.9,5.4
			c0.4,2,0.7,4,0.8,5.9c0.1,1.2,0.1,2.7,0.2,4.4c0.1,1.7,0.2,3.4,0.4,5.2c0.2,1.8,0.5,3.4,0.9,5c0.4,1.6,1,2.9,1.8,4h-17.2
			c-1-2.5-1.5-5.5-1.8-8.9c-0.2-3.4-0.5-6.7-1-9.9c-0.6-4.1-1.8-7.1-3.7-9c-1.9-1.9-5-2.9-9.3-2.9h-17.2v30.6h-17.2v-78.4H433.5z
			 M427.3,426.2c4,0,6.9-0.9,8.9-2.6c2-1.8,3-4.6,3-8.6c0-3.8-1-6.6-3-8.3c-2-1.7-4.9-2.6-8.9-2.6h-18.9v22.1H427.3z"/>
		<path class="st0" d="M479.1,390.7l18.3,53.9h0.2l17.4-53.9h24.3v78.4h-16.1v-55.6h-0.2l-19.2,55.6h-13.3l-19.2-55H471v55h-16.1
			v-78.4H479.1z"/>
		<path class="st0" d="M593.5,390.7v14.5h-27.7V422H594v13.4h-28.2v19.2h42.3v14.5h-59.5v-78.4H593.5z"/>
		<path class="st0" d="M623.1,390.7l32.7,52.6h0.2v-52.6h16.1v78.4H655l-32.6-52.5h-0.2v52.5H606v-78.4H623.1z"/>
	</g>
	<path class="st0" d="M219.3,390.9c-21.5,0-39,17.4-39,39s17.4,39,39,39s39-17.4,39-39S240.9,390.9,219.3,390.9z M218.7,450.4
		c-11.5,0-20.9-9.4-20.9-20.9s9.4-20.9,20.9-20.9s20.9,9.4,20.9,20.9S230.3,450.4,218.7,450.4z"/>
</g>
</svg>
